<svg width="119" height="25" viewBox="0 0 119 25" fill="none" xmlns="http://www.w3.org/2000/svg">
<g clip-path="url(#clip0_254_48)">
<path d="M42.0046 14.3993L41.2954 16.376H41.2363C41.1181 15.9303 40.9013 15.252 40.5467 14.438L36.7442 5.0388H33.0205V20.0194H35.4833V10.7752C35.4833 10.1938 35.4833 9.53492 35.4636 8.72097C35.4439 8.31399 35.4045 8.00391 35.3848 7.77135H35.4439C35.5621 8.35275 35.7 8.77911 35.7985 9.05042L40.3694 19.9807H42.1032L46.6346 8.95353C46.7331 8.70159 46.8316 8.19771 46.9301 7.77135H46.9892C46.9301 8.87601 46.8907 9.86438 46.871 10.4652V19.9613H49.4914V5.00004H45.9056L42.0046 14.3993ZM51.9738 9.22484H54.5351V19.9613H51.9738V9.22484ZM53.2742 4.68996C52.8407 4.68996 52.4861 4.845 52.1906 5.11632C51.895 5.38763 51.7374 5.73647 51.7374 6.16283C51.7374 6.5698 51.895 6.91864 52.1906 7.18996C52.4861 7.46128 52.8407 7.59694 53.2742 7.59694C53.7076 7.59694 54.082 7.4419 54.3578 7.18996C54.6533 6.91864 54.8109 6.5698 54.8109 6.16283C54.8109 5.75585 54.6533 5.40701 54.3578 5.11632C54.1017 4.845 53.7273 4.68996 53.2742 4.68996ZM63.6177 9.12794C63.1449 9.03104 62.6523 8.97291 62.1795 8.97291C61.0171 8.97291 59.9531 9.22484 59.0666 9.72872C58.18 10.2326 57.4707 10.9303 57.0176 11.8024C56.5447 12.6938 56.3083 13.721 56.3083 14.9031C56.3083 15.9303 56.5447 16.8411 56.9979 17.6745C57.451 18.4884 58.0815 19.1473 58.9286 19.5931C59.7364 20.0388 60.6821 20.2714 61.746 20.2714C62.9676 20.2714 64.0118 20.0194 64.8392 19.5543L64.8589 19.5349V17.2093L64.7604 17.2869C64.3861 17.5582 63.9527 17.7907 63.5192 17.9264C63.0661 18.0814 62.6523 18.159 62.2977 18.159C61.2732 18.159 60.4654 17.8683 59.894 17.2287C59.303 16.6086 59.0075 15.7559 59.0075 14.69C59.0075 13.5853 59.303 12.7132 59.9137 12.0737C60.5245 11.4341 61.3323 11.1047 62.3174 11.1047C63.1449 11.1047 63.9921 11.376 64.7604 11.9186L64.8589 11.9962V9.53492L64.8392 9.51554C64.5043 9.37988 64.13 9.22484 63.6177 9.12794ZM72.0699 9.05042C71.4394 9.05042 70.8484 9.24422 70.3361 9.6512C69.9027 10 69.6071 10.5039 69.351 11.1047H69.3313V9.22484H66.77V19.9613H69.3313V14.4768C69.3313 13.5465 69.5283 12.7714 69.9618 12.2093C70.3952 11.6279 70.9469 11.3372 71.6167 11.3372C71.8532 11.3372 72.0896 11.3954 72.3851 11.4341C72.6609 11.5117 72.858 11.5892 72.9959 11.6861L73.0944 11.7636V9.24422L73.0353 9.22484C72.858 9.10856 72.5033 9.05042 72.0699 9.05042ZM79.0444 8.99229C77.2515 8.99229 75.8133 9.51554 74.8085 10.5427C73.7839 11.5698 73.2914 12.9845 73.2914 14.7675C73.2914 16.4341 73.8036 17.7907 74.7887 18.7791C75.7738 19.7481 77.1136 20.252 78.7882 20.252C80.5417 20.252 81.9406 19.7287 82.9454 18.6822C83.9699 17.6357 84.4624 16.2403 84.4624 14.5155C84.4624 12.8101 83.9896 11.4535 83.0242 10.4652C82.0982 9.47678 80.7388 8.99229 79.0444 8.99229ZM81.0934 17.2481C80.6205 17.8489 79.8719 18.1396 78.9459 18.1396C78.0199 18.1396 77.2712 17.8489 76.7392 17.2093C76.2073 16.6086 75.9512 15.7365 75.9512 14.6318C75.9512 13.4884 76.227 12.6163 76.7392 11.9962C77.2712 11.376 78.0002 11.0659 78.9262 11.0659C79.8325 11.0659 80.5417 11.3566 81.054 11.9574C81.5662 12.5582 81.8421 13.4303 81.8421 14.5737C81.8027 15.7365 81.5859 16.6473 81.0934 17.2481ZM90.176 13.6822C89.3682 13.3527 88.856 13.1008 88.6195 12.8876C88.4225 12.6938 88.324 12.4225 88.324 12.0737C88.324 11.783 88.4422 11.4923 88.7378 11.2985C89.0333 11.1047 89.3682 11.0078 89.8608 11.0078C90.2942 11.0078 90.7474 11.0853 91.1808 11.2016C91.6142 11.3179 92.0083 11.4923 92.3235 11.7248L92.422 11.8024V9.43802L92.3629 9.41864C92.0674 9.30236 91.6733 9.18608 91.2005 9.08918C90.7277 9.01167 90.2942 8.97291 89.9396 8.97291C88.7181 8.97291 87.7133 9.2636 86.9252 9.90314C86.1371 10.5039 85.7628 11.3179 85.7628 12.2675C85.7628 12.7714 85.8416 13.2171 86.0189 13.5853C86.1962 13.9535 86.4523 14.3024 86.807 14.5931C87.1616 14.8644 87.6738 15.1745 88.3831 15.4652C88.9742 15.7171 89.4273 15.9109 89.7031 16.0659C89.979 16.221 90.1563 16.3954 90.2942 16.531C90.3927 16.6861 90.4518 16.8799 90.4518 17.1318C90.4518 17.8489 89.9002 18.1977 88.7772 18.1977C88.3437 18.1977 87.8906 18.1202 87.3586 17.9458C86.8267 17.7714 86.3341 17.5194 85.9204 17.2287L85.8219 17.1512V19.6124L85.881 19.6318C86.2553 19.8062 86.7084 19.9225 87.2601 20.0582C87.8118 20.1551 88.3043 20.2326 88.7378 20.2326C90.0578 20.2326 91.1414 19.9419 91.9098 19.3024C92.6979 18.6822 93.1116 17.8876 93.1116 16.8605C93.1116 16.1434 92.9146 15.5039 92.4811 15.0194C91.9098 14.5543 91.2005 14.0698 90.176 13.6822ZM99.8694 8.99229C98.0765 8.99229 96.6382 9.51554 95.6334 10.5427C94.6286 11.5698 94.1164 12.9845 94.1164 14.7675C94.1164 16.4341 94.6286 17.7907 95.6137 18.7791C96.5988 19.7481 97.9386 20.252 99.6133 20.252C101.367 20.252 102.766 19.7287 103.77 18.6822C104.795 17.6357 105.287 16.2403 105.287 14.5155C105.287 12.8101 104.815 11.4535 103.849 10.4652C102.923 9.47678 101.564 8.99229 99.8694 8.99229ZM101.899 17.2481C101.426 17.8489 100.677 18.1396 99.7512 18.1396C98.8055 18.1396 98.0765 17.8489 97.5445 17.2093C97.0126 16.6086 96.7565 15.7365 96.7565 14.6318C96.7565 13.4884 97.0323 12.6163 97.5445 11.9962C98.0765 11.376 98.8055 11.0659 99.7315 11.0659C100.618 11.0659 101.347 11.3566 101.859 11.9574C102.372 12.5582 102.647 13.4303 102.647 14.5737C102.647 15.7365 102.391 16.6473 101.899 17.2481ZM118.98 11.2985V9.22484H116.399V6.04655L116.321 6.06593L113.877 6.78298L113.818 6.80236V9.22484H109.957V7.86825C109.957 7.2481 110.114 6.7636 110.39 6.45353C110.666 6.14345 111.08 5.98841 111.592 5.98841C111.947 5.98841 112.321 6.06593 112.735 6.24035L112.833 6.29849V4.10856L112.774 4.08918C112.42 3.97291 111.947 3.89539 111.336 3.89539C110.568 3.89539 109.898 4.0698 109.287 4.3605C108.676 4.68996 108.223 5.1357 107.888 5.73647C107.553 6.31787 107.376 6.97678 107.376 7.7326V9.22484H105.583V11.2791H107.376V19.9613H109.957V11.2985H113.818V16.8217C113.818 19.0892 114.902 20.2326 117.069 20.2326C117.424 20.2326 117.798 20.1745 118.153 20.1163C118.527 20.0388 118.803 19.9419 118.961 19.8644L118.98 19.845V17.7714L118.882 17.8489C118.724 17.9458 118.586 18.0233 118.35 18.0814C118.153 18.1396 117.975 18.159 117.838 18.159C117.325 18.159 116.971 18.0427 116.715 17.752C116.478 17.4807 116.36 17.0349 116.36 16.376V11.2985H118.98Z" fill="white" fill-opacity="0.6"/>
<path d="M0 0H12.0773V11.8798H0V0Z" fill="white" fill-opacity="0.6"/>
<path d="M13.3382 0H25.4156V11.8798H13.3382V0Z" fill="white" fill-opacity="0.6"/>
<path d="M0 13.1201H12.0773V25H0V13.1201Z" fill="white" fill-opacity="0.6"/>
<path d="M13.3382 13.1201H25.4156V25H13.3382V13.1201Z" fill="white" fill-opacity="0.6"/>
</g>
<defs>
<clipPath id="clip0_254_48">
<rect width="119" height="25" fill="white"/>
</clipPath>
</defs>
</svg>
